<?xml version="1.0" encoding="UTF-8"?>
<svg width="32px" height="32px" viewBox="0 0 32 32" version="1.1" xmlns="http://www.w3.org/2000/svg" xmlns:xlink="http://www.w3.org/1999/xlink">
    <title>mysql</title>
    <defs>
        <rect id="path-1" x="220" y="112" width="1200" height="1556" rx="2"></rect>
        <filter x="-1.1%" y="-0.7%" width="102.2%" height="101.7%" filterUnits="objectBoundingBox" id="filter-2">
            <feOffset dx="0" dy="2" in="SourceAlpha" result="shadowOffsetOuter1"></feOffset>
            <feGaussianBlur stdDeviation="4" in="shadowOffsetOuter1" result="shadowBlurOuter1"></feGaussianBlur>
            <feColorMatrix values="0 0 0 0 0.0235294118   0 0 0 0 0.0549019608   0 0 0 0 0.101960784  0 0 0 0.08 0" type="matrix" in="shadowBlurOuter1"></feColorMatrix>
        </filter>
        <rect id="path-3" x="240" y="164" width="1160" height="1300" rx="1"></rect>
        <filter x="-0.9%" y="-0.6%" width="101.7%" height="101.5%" filterUnits="objectBoundingBox" id="filter-4">
            <feOffset dx="0" dy="2" in="SourceAlpha" result="shadowOffsetOuter1"></feOffset>
            <feGaussianBlur stdDeviation="3" in="shadowOffsetOuter1" result="shadowBlurOuter1"></feGaussianBlur>
            <feColorMatrix values="0 0 0 0 0   0 0 0 0 0   0 0 0 0 0  0 0 0 0.1 0" type="matrix" in="shadowBlurOuter1"></feColorMatrix>
        </filter>
        <rect id="path-5" x="1120" y="217" width="260" height="60" rx="4"></rect>
        <filter x="-5.8%" y="-25.0%" width="111.5%" height="150.0%" filterUnits="objectBoundingBox" id="filter-6">
            <feOffset dx="0" dy="0" in="SourceAlpha" result="shadowOffsetOuter1"></feOffset>
            <feGaussianBlur stdDeviation="5" in="shadowOffsetOuter1" result="shadowBlurOuter1"></feGaussianBlur>
            <feColorMatrix values="0 0 0 0 0   0 0 0 0 0   0 0 0 0 0  0 0 0 0.1 0" type="matrix" in="shadowBlurOuter1"></feColorMatrix>
        </filter>
    </defs>
    <g id="v4.4.0" stroke="none" stroke-width="1" fill="none" fill-rule="evenodd">
        <g id="运行部署向导-配置服务-资源分配备份" transform="translate(-1134.000000, -231.000000)">
            <g id="编组">
                <rect id="矩形" fill="#F2F7FA" x="0" y="0" width="1440" height="900"></rect>
                <g id="矩形">
                    <use fill="black" fill-opacity="1" filter="url(#filter-2)" xlink:href="#path-1"></use>
                    <use fill="#FAFAFA" fill-rule="evenodd" xlink:href="#path-1"></use>
                </g>
                <g id="矩形">
                    <use fill="black" fill-opacity="1" filter="url(#filter-4)" xlink:href="#path-3"></use>
                    <use fill="#FFFFFF" fill-rule="evenodd" xlink:href="#path-3"></use>
                </g>
                <text id="MySQL主从同步状态（最新）" font-family="PingFangSC-Medium, PingFang SC" font-size="12" font-weight="400" fill="#333333">
                    <tspan x="1123" y="197">MySQL主从同步状态（最新）</tspan>
                    <tspan x="1123" y="214"></tspan>
                </text>
            </g>
            <g id="矩形备份-10">
                <use fill="black" fill-opacity="1" filter="url(#filter-6)" xlink:href="#path-5"></use>
                <use fill="#FFFFFF" fill-rule="evenodd" xlink:href="#path-5"></use>
            </g>
            <path d="M1120,217 L1176,217 C1178.20914,217 1180,218.790861 1180,221 L1180,273 C1180,275.209139 1178.20914,277 1176,277 L1120,277 L1120,277 L1120,217 Z" id="矩形备份-24" fill="#E2EDFF" transform="translate(1150.000000, 247.000000) scale(-1, 1) translate(-1150.000000, -247.000000) "></path>
            <g id="mysql" transform="translate(1134.000000, 231.000000)" fill="#3F87FF" fill-rule="nonzero">
                <path d="M31.8625284,24.4427202 C31.6019585,23.9810425 30.9978617,23.192032 28.767596,21.6705214 C27.4371696,20.7556175 26.0475955,19.9303157 24.6080493,19.2000658 C23.5912949,16.441728 21.6226626,12.8655915 18.7500123,8.55908729 C15.657207,3.92205168 12.0655964,1.96871776 8.05175618,2.74280096 C7.613844,2.30754883 7.16011015,1.88859249 6.69147488,1.48678166 C5.67897465,0.615671494 3.19877451,-0.12429234 1.77361662,0.0175162914 C1.12804137,0.0825563402 0.643062267,0.319259469 0.332505474,0.720162065 C-0.387518324,1.64991489 -0.147155875,2.98803393 3.17431284,7.34784966 C3.80606193,9.20095794 3.94113287,10.1690951 3.94113287,10.6563623 C3.94113287,11.6863408 4.47184465,12.867724 5.602399,14.3465854 L4.53884834,17.9952255 C3.59016115,21.2536253 5.31417677,25.4684338 6.91907472,26.9376991 C7.775233,27.7224446 8.49632035,27.6051593 8.85260982,27.4654831 C9.56731587,27.1839983 10.1437603,26.483485 10.5160031,24.4832369 C10.7205467,24.9885615 10.92227,25.4950288 11.1211634,26.0026151 C12.2697981,28.9262186 13.3929076,30.54369 14.6553422,31.0917324 C15.1853865,31.2877076 15.7758242,31.0344965 16.0005131,30.5148515 C16.225202,29.9952066 16.0058908,29.3901022 15.500865,29.136266 C15.1881811,28.9997885 14.3267051,28.3461894 13.0983041,25.2210683 C12.0624057,22.5842808 11.3083483,20.8207358 10.7925262,19.8280754 C10.5684742,19.4015472 10.0883323,19.1770036 9.6183663,19.2789668 C9.14801052,19.3842467 8.80686501,19.7931658 8.78666968,20.2758922 C8.65798005,23.3093174 8.35274101,24.6207807 8.14853929,25.1741542 C7.26791934,24.1591029 5.88423993,20.9764055 6.57873851,18.5923145 C7.26898289,16.2188858 7.67525924,14.8295877 7.79650402,14.4190891 C7.8963147,14.0814599 7.82304673,13.716193 7.6008107,13.4434883 C6.21606773,11.7385861 6.06610709,10.9250523 6.06610709,10.6542298 C6.06610709,9.67223173 5.75874095,8.30852317 5.12592831,6.48420311 C5.08955481,6.37740867 5.03602721,6.27728676 4.96745926,6.18779109 C3.17856704,3.85168048 2.52129274,2.68202583 2.28093029,2.12651984 C3.13283437,2.16703659 4.75155847,2.62764809 5.30566837,3.10531926 C5.87462638,3.59146194 6.4184542,4.10641071 6.93502798,4.64815452 C7.20100792,4.92971021 7.59882234,5.04371622 7.97305343,4.94563278 C11.3030305,4.08198623 14.2522565,5.65041101 16.9823911,9.74366917 C19.9007741,14.1194784 21.839627,17.6753564 22.7457721,20.3132102 C22.8381496,20.5826395 23.0342418,20.8037991 23.2903101,20.9273589 C24.7772667,21.6557624 26.2081416,22.4939976 27.5711015,23.4351326 C27.7953854,23.5879094 28.0176862,23.743592 28.2379477,23.9021414 L24.9526397,23.9021414 C24.5385382,23.9033017 24.1626803,24.1450853 23.9890746,24.521988 C23.815469,24.8988908 23.875619,25.3425178 24.1432777,25.659289 C25.1980917,26.9118741 26.2825118,28.1390977 27.3956156,29.339916 C27.6529677,29.6300695 28.047306,29.7570383 28.425056,29.6713748 C28.8028061,29.5857112 29.1042457,29.3009587 29.2119797,28.9280135 C29.3197138,28.5550683 29.2167096,28.1528931 28.9430818,27.8781143 C28.3780792,27.2729289 27.8231832,26.6583393 27.278625,26.034602 L30.9372393,26.034602 C31.3153994,26.033942 31.6648283,25.8322221 31.8552228,25.5046644 C32.0456172,25.1771068 32.0483981,24.7728794 31.8625284,24.4427202 L31.8625284,24.4427202 Z M9.26315789,8.04619895 C9.68007473,8.73001012 10.0022377,9.2197396 10.2285941,9.51639297 C10.5012746,10.0272401 10.9255611,10.4355156 11.1971888,10.9473684 L11.2635165,10.8850209 C11.7414969,10.5722779 12.1163009,9.32935051 11.354059,8.51279951 C10.9581986,7.94161606 9.67481063,7.95770573 9.26315789,8.04619895 Z" id="形状"></path>
            </g>
        </g>
    </g>
</svg>