<?xml version="1.0" encoding="UTF-8"?>
<svg width="33px" height="33px" viewBox="0 0 33 33" version="1.1" xmlns="http://www.w3.org/2000/svg" xmlns:xlink="http://www.w3.org/1999/xlink">
    <title>告警</title>
    <defs>
        <rect id="path-1" x="220" y="112" width="1200" height="1556" rx="2"></rect>
        <filter x="-1.1%" y="-0.7%" width="102.2%" height="101.7%" filterUnits="objectBoundingBox" id="filter-2">
            <feOffset dx="0" dy="2" in="SourceAlpha" result="shadowOffsetOuter1"></feOffset>
            <feGaussianBlur stdDeviation="4" in="shadowOffsetOuter1" result="shadowBlurOuter1"></feGaussianBlur>
            <feColorMatrix values="0 0 0 0 0.0235294118   0 0 0 0 0.0549019608   0 0 0 0 0.101960784  0 0 0 0.08 0" type="matrix" in="shadowBlurOuter1"></feColorMatrix>
        </filter>
        <rect id="path-3" x="240" y="164" width="1160" height="1300" rx="1"></rect>
        <filter x="-0.9%" y="-0.6%" width="101.7%" height="101.5%" filterUnits="objectBoundingBox" id="filter-4">
            <feOffset dx="0" dy="2" in="SourceAlpha" result="shadowOffsetOuter1"></feOffset>
            <feGaussianBlur stdDeviation="3" in="shadowOffsetOuter1" result="shadowBlurOuter1"></feGaussianBlur>
            <feColorMatrix values="0 0 0 0 0   0 0 0 0 0   0 0 0 0 0  0 0 0 0.1 0" type="matrix" in="shadowBlurOuter1"></feColorMatrix>
        </filter>
        <rect id="path-5" x="0" y="144" width="260" height="60" rx="4"></rect>
        <filter x="-5.8%" y="-25.0%" width="111.5%" height="150.0%" filterUnits="objectBoundingBox" id="filter-6">
            <feOffset dx="0" dy="0" in="SourceAlpha" result="shadowOffsetOuter1"></feOffset>
            <feGaussianBlur stdDeviation="5" in="shadowOffsetOuter1" result="shadowBlurOuter1"></feGaussianBlur>
            <feColorMatrix values="0 0 0 0 0   0 0 0 0 0   0 0 0 0 0  0 0 0 0.1 0" type="matrix" in="shadowBlurOuter1"></feColorMatrix>
        </filter>
    </defs>
    <g id="v4.4.0" stroke="none" stroke-width="1" fill="none" fill-rule="evenodd">
        <g id="编组" transform="translate(-705.000000, -363.000000)">
            <rect id="矩形" fill="#F2F7FA" x="0" y="0" width="1440" height="900"></rect>
            <g id="矩形">
                <use fill="black" fill-opacity="1" filter="url(#filter-2)" xlink:href="#path-1"></use>
                <use fill="#FAFAFA" fill-rule="evenodd" xlink:href="#path-1"></use>
            </g>
            <g id="矩形">
                <use fill="black" fill-opacity="1" filter="url(#filter-4)" xlink:href="#path-3"></use>
                <use fill="#FFFFFF" fill-rule="evenodd" xlink:href="#path-3"></use>
            </g>
            <g id="编组-5" transform="translate(691.000000, 172.000000)">
                <g id="编组-4" transform="translate(0.000000, 33.000000)">
                    <g id="矩形备份-2">
                        <use fill="black" fill-opacity="1" filter="url(#filter-6)" xlink:href="#path-5"></use>
                        <use fill="#FFFFFF" fill-rule="evenodd" xlink:href="#path-5"></use>
                    </g>
                    <path d="M0,144 L56,144 C58.209139,144 60,145.790861 60,148 L60,200 C60,202.209139 58.209139,204 56,204 L0,204 L0,204 L0,144 Z" id="矩形备份-25" fill="#E2EDFF" transform="translate(30.000000, 174.000000) scale(-1, 1) translate(-30.000000, -174.000000) "></path>
                </g>
            </g>
            <g id="告警" transform="translate(705.000000, 363.000000)" fill="#3F87FF" fill-rule="nonzero">
                <path d="M5.5,28.4482759 C4.89248678,28.4482759 4.4,28.9577449 4.4,29.5862069 C4.4,30.2146689 4.89248678,30.7241379 5.5,30.7241379 L27.5,30.7241379 C28.1075132,30.7241379 28.6,30.2146689 28.6,29.5862069 C28.6,28.9577449 28.1075132,28.4482759 27.5,28.4482759 L5.5,28.4482759 Z M5.5,26.1724138 L27.5,26.1724138 C29.3225397,26.1724138 30.8,27.700821 30.8,29.5862069 C30.8,31.4715928 29.3225397,33 27.5,33 L5.5,33 C3.67746033,33 2.2,31.4715928 2.2,29.5862069 C2.2,27.700821 3.67746033,26.1724138 5.5,26.1724138 Z M25.3,6.25862069 C25.3,7.20131362 26.0387302,7.96551724 26.95,7.96551724 C27.8612698,7.96551724 28.6,7.20131362 28.6,6.25862069 C28.6,5.31592775 27.8612698,4.55172414 26.95,4.55172414 C26.0387302,4.55172414 25.3,5.31592775 25.3,6.25862069 Z M4.4,6.25862069 C4.4,7.20131362 5.13873016,7.96551724 6.05,7.96551724 C6.96126984,7.96551724 7.7,7.20131362 7.7,6.25862069 C7.7,5.31592775 6.96126984,4.55172414 6.05,4.55172414 C5.13873016,4.55172414 4.4,5.31592775 4.4,6.25862069 Z" id="形状"></path>
                <path d="M15.4,20.4827586 C15.4,19.8542967 15.8924868,19.3448276 16.5,19.3448276 C17.1075132,19.3448276 17.6,19.8542967 17.6,20.4827586 L17.6,26.1724138 C17.6,26.8008757 17.1075132,27.3103448 16.5,27.3103448 C15.8924868,27.3103448 15.4,26.8008757 15.4,26.1724138 L15.4,20.4827586 Z" id="路径"></path>
                <path d="M16.5,21.6206897 C15.1245275,21.6206897 13.8535384,20.8615802 13.1658021,19.6293104 C12.4780658,18.3970406 12.4780658,16.8788215 13.1658021,15.6465517 C13.8535384,14.4142819 15.1245275,13.6551724 16.5,13.6551724 C18.6262963,13.6551724 20.3499999,15.4383142 20.3499999,17.637931 C20.3499999,19.8375479 18.6262963,21.6206897 16.5,21.6206897 L16.5,21.6206897 Z M16.5,19.3448276 C17.4112698,19.3448276 18.15,18.580624 18.15,17.637931 C18.15,16.6952381 17.4112698,15.9310345 16.5,15.9310345 C15.5887302,15.9310345 14.85,16.6952381 14.85,17.637931 C14.85,18.580624 15.5887302,19.3448276 16.5,19.3448276 Z M28.6,15.9310345 C27.9924868,15.9310345 27.5,15.4215654 27.5,14.7931034 C27.5,14.1646415 27.9924868,13.6551724 28.6,13.6551724 L31.9,13.6551724 C32.5075132,13.6551724 33,14.1646415 33,14.7931034 C33,15.4215654 32.5075132,15.9310345 31.9,15.9310345 L28.6,15.9310345 Z M1.1,15.9310345 C0.492486775,15.9310345 0,15.4215654 0,14.7931034 C0,14.1646415 0.492486775,13.6551724 1.1,13.6551724 L4.4,13.6551724 C5.00751322,13.6551724 5.5,14.1646415 5.5,14.7931034 C5.5,15.4215654 5.00751322,15.9310345 4.4,15.9310345 L1.1,15.9310345 Z M15.4,1.13793103 C15.4,0.509469078 15.8924868,0 16.5,0 C17.1075132,0 17.6,0.509469078 17.6,1.13793103 L17.6,4.55172414 C17.6,5.18018609 17.1075132,5.68965517 16.5,5.68965517 C15.8924868,5.68965517 15.4,5.18018609 15.4,4.55172414 L15.4,1.13793103 Z" id="形状"></path>
                <path d="M8.2654,27.3103448 L6.0654,27.3103448 L6.0654,17.0689655 C6.0654,11.0985769 10.7440244,6.25862069 16.5154,6.25862069 C22.2867756,6.25862069 26.9654,11.0985769 26.9654,17.0689655 L26.9654,27.3103448 L24.7654,27.3103448 L24.7654,17.0689655 C24.7653999,12.3555009 21.0717491,8.53448289 16.5154,8.53448289 C11.9590509,8.53448289 8.26540007,12.3555009 8.2654,17.0689655 L8.2654,27.3103448 Z" id="路径"></path>
            </g>
        </g>
    </g>
</svg>