<?xml version="1.0" encoding="UTF-8"?>
<svg width="35px" height="33px" viewBox="0 0 35 33" version="1.1" xmlns="http://www.w3.org/2000/svg" xmlns:xlink="http://www.w3.org/1999/xlink">
    <title>形状</title>
    <defs>
        <rect id="path-1" x="220" y="112" width="1200" height="1556" rx="2"></rect>
        <filter x="-1.1%" y="-0.7%" width="102.2%" height="101.7%" filterUnits="objectBoundingBox" id="filter-2">
            <feOffset dx="0" dy="2" in="SourceAlpha" result="shadowOffsetOuter1"></feOffset>
            <feGaussianBlur stdDeviation="4" in="shadowOffsetOuter1" result="shadowBlurOuter1"></feGaussianBlur>
            <feColorMatrix values="0 0 0 0 0.0235294118   0 0 0 0 0.0549019608   0 0 0 0 0.101960784  0 0 0 0.08 0" type="matrix" in="shadowBlurOuter1"></feColorMatrix>
        </filter>
        <rect id="path-3" x="240" y="164" width="1160" height="1300" rx="1"></rect>
        <filter x="-0.9%" y="-0.6%" width="101.7%" height="101.5%" filterUnits="objectBoundingBox" id="filter-4">
            <feOffset dx="0" dy="2" in="SourceAlpha" result="shadowOffsetOuter1"></feOffset>
            <feGaussianBlur stdDeviation="3" in="shadowOffsetOuter1" result="shadowBlurOuter1"></feGaussianBlur>
            <feColorMatrix values="0 0 0 0 0   0 0 0 0 0   0 0 0 0 0  0 0 0 0.1 0" type="matrix" in="shadowBlurOuter1"></feColorMatrix>
        </filter>
        <rect id="path-5" x="0" y="105" width="260" height="60" rx="4"></rect>
        <filter x="-5.8%" y="-25.0%" width="111.5%" height="150.0%" filterUnits="objectBoundingBox" id="filter-6">
            <feOffset dx="0" dy="0" in="SourceAlpha" result="shadowOffsetOuter1"></feOffset>
            <feGaussianBlur stdDeviation="5" in="shadowOffsetOuter1" result="shadowBlurOuter1"></feGaussianBlur>
            <feColorMatrix values="0 0 0 0 0   0 0 0 0 0   0 0 0 0 0  0 0 0 0.1 0" type="matrix" in="shadowBlurOuter1"></feColorMatrix>
        </filter>
    </defs>
    <g id="v4.4.0" stroke="none" stroke-width="1" fill="none" fill-rule="evenodd">
        <g id="编组" transform="translate(-275.000000, -291.000000)">
            <rect id="矩形" fill="#F2F7FA" x="0" y="0" width="1440" height="900"></rect>
            <g id="矩形">
                <use fill="black" fill-opacity="1" filter="url(#filter-2)" xlink:href="#path-1"></use>
                <use fill="#FAFAFA" fill-rule="evenodd" xlink:href="#path-1"></use>
            </g>
            <g id="矩形">
                <use fill="black" fill-opacity="1" filter="url(#filter-4)" xlink:href="#path-3"></use>
                <use fill="#FFFFFF" fill-rule="evenodd" xlink:href="#path-3"></use>
            </g>
            <g id="编组-2" transform="translate(263.000000, 172.000000)">
                <g id="矩形备份-5">
                    <use fill="black" fill-opacity="1" filter="url(#filter-6)" xlink:href="#path-5"></use>
                    <use fill="#FFFFFF" fill-rule="evenodd" xlink:href="#path-5"></use>
                </g>
                <path d="M0,105 L56,105 C58.209139,105 60,106.790861 60,109 L60,161 C60,163.209139 58.209139,165 56,165 L0,165 L0,165 L0,105 Z" id="矩形备份-21" fill="#E2EDFF" transform="translate(30.000000, 135.000000) scale(-1, 1) translate(-30.000000, -135.000000) "></path>
                <path d="M36.2502212,119 L23.5630807,119 C22.0824411,119 20.7229159,119.817901 20.0292323,121.125989 L13.4004444,133.625989 C12.778909,134.798028 12.778909,136.201972 13.4004444,137.374011 L20.0292323,149.874011 C20.7229159,151.182099 22.0824411,152 23.5630807,152 L36.2502212,152 C37.7308608,152 39.0903861,151.182099 39.7840696,149.874011 L46.4128575,137.374011 C47.034393,136.201972 47.034393,134.798028 46.4128575,133.625989 L39.7840696,121.125989 C39.0903861,119.817901 37.7308608,119 36.2502212,119 Z M35.10569,149.9375 L24.707612,149.9375 C23.2269724,149.9375 21.8674471,149.119599 21.1737636,147.811511 L15.6387257,137.374011 C15.0171902,136.201972 15.0171902,134.798028 15.6387257,133.625989 L21.1737636,123.188489 C21.8674471,121.880401 23.2269724,121.0625 24.707612,121.0625 L35.10569,121.0625 C36.5863296,121.0625 37.9458548,121.880401 38.6395384,123.188489 L44.1745763,133.625989 C44.7961117,134.798028 44.7961117,136.201972 44.1745763,137.374011 L38.6395384,147.811511 C37.9458548,149.119599 36.5863296,149.9375 35.10569,149.9375 Z M31.060224,124.058182 L23.0931293,136.380622 C22.9431975,136.612516 23.0096414,136.922048 23.2415359,137.07198 C23.3103571,137.116476 23.3890606,137.143374 23.4707198,137.150306 L27.059062,137.454911 C27.3109743,137.476295 27.5072861,137.682358 27.5164424,137.935011 L27.8335238,146.684326 C27.8435248,146.960287 28.075343,147.17589 28.3513042,147.165889 C28.5144518,147.159977 28.6644386,147.074788 28.7530779,146.937693 L36.7201726,134.615253 C36.8701044,134.383359 36.8036605,134.073827 36.571766,133.923895 C36.5029449,133.879399 36.4242413,133.852501 36.3425821,133.845569 L32.7542399,133.540964 C32.5023276,133.51958 32.3060158,133.313517 32.2968595,133.060864 L31.9797782,124.311549 C31.9697771,124.035588 31.7379589,123.819985 31.4619977,123.829986 C31.2988501,123.835898 31.1488633,123.921087 31.060224,124.058182 Z M29.5601729,140.360869 L29.4905141,138.436057 L29.4905141,138.436057 L29.453526,137.414 L29.4031536,136.024717 C29.3939994,135.772244 29.1979466,135.566266 28.9462322,135.544665 L27.656651,135.434 L27.656651,135.434 L26.9824026,135.37667 C26.7072531,135.353274 26.5031662,135.111255 26.5265617,134.836106 C26.5335046,134.754452 26.5604107,134.675757 26.6049123,134.606945 L29.3375107,130.381567 C29.4874685,130.149689 29.7970074,130.08328 30.0288851,130.233238 C30.1659615,130.321887 30.2511313,130.471869 30.2570353,130.635006 L30.3636822,133.581875 L30.3636822,133.581875 L30.4140546,134.971158 C30.4232088,135.223631 30.6192616,135.429609 30.870976,135.45121 L32.1605572,135.561875 L32.1605572,135.561875 L32.8348056,135.619205 C33.1099551,135.642601 33.314042,135.88462 33.2906464,136.159769 C33.2837036,136.241423 33.2567974,136.320118 33.2122958,136.38893 L30.4796975,140.614308 C30.3297396,140.846186 30.0202008,140.912595 29.7883231,140.762637 C29.6512467,140.673988 29.5660768,140.524006 29.5601729,140.360869 Z" id="形状" fill="#3F87FF" fill-rule="nonzero"></path>
            </g>
        </g>
    </g>
</svg>