<?xml version="1.0" encoding="UTF-8"?>
<svg width="33px" height="33px" viewBox="0 0 33 33" version="1.1" xmlns="http://www.w3.org/2000/svg" xmlns:xlink="http://www.w3.org/1999/xlink">
    <title>数据节点</title>
    <defs>
        <rect id="path-1" x="220" y="112" width="1200" height="1556" rx="2"></rect>
        <filter x="-1.1%" y="-0.7%" width="102.2%" height="101.7%" filterUnits="objectBoundingBox" id="filter-2">
            <feOffset dx="0" dy="2" in="SourceAlpha" result="shadowOffsetOuter1"></feOffset>
            <feGaussianBlur stdDeviation="4" in="shadowOffsetOuter1" result="shadowBlurOuter1"></feGaussianBlur>
            <feColorMatrix values="0 0 0 0 0.0235294118   0 0 0 0 0.0549019608   0 0 0 0 0.101960784  0 0 0 0.08 0" type="matrix" in="shadowBlurOuter1"></feColorMatrix>
        </filter>
        <rect id="path-3" x="240" y="164" width="1160" height="1300" rx="1"></rect>
        <filter x="-0.9%" y="-0.6%" width="101.7%" height="101.5%" filterUnits="objectBoundingBox" id="filter-4">
            <feOffset dx="0" dy="2" in="SourceAlpha" result="shadowOffsetOuter1"></feOffset>
            <feGaussianBlur stdDeviation="3" in="shadowOffsetOuter1" result="shadowBlurOuter1"></feGaussianBlur>
            <feColorMatrix values="0 0 0 0 0   0 0 0 0 0   0 0 0 0 0  0 0 0 0.1 0" type="matrix" in="shadowBlurOuter1"></feColorMatrix>
        </filter>
        <rect id="path-5" x="0" y="0" width="260" height="60" rx="4"></rect>
        <filter x="-5.8%" y="-25.0%" width="111.5%" height="150.0%" filterUnits="objectBoundingBox" id="filter-6">
            <feOffset dx="0" dy="0" in="SourceAlpha" result="shadowOffsetOuter1"></feOffset>
            <feGaussianBlur stdDeviation="5" in="shadowOffsetOuter1" result="shadowBlurOuter1"></feGaussianBlur>
            <feColorMatrix values="0 0 0 0 0   0 0 0 0 0   0 0 0 0 0  0 0 0 0.1 0" type="matrix" in="shadowBlurOuter1"></feColorMatrix>
        </filter>
    </defs>
    <g id="v4.4.0" stroke="none" stroke-width="1" fill="none" fill-rule="evenodd">
        <g id="运行部署向导-配置服务-资源分配备份" transform="translate(-705.000000, -219.000000)">
            <g id="编组">
                <rect id="矩形" fill="#F2F7FA" x="0" y="0" width="1440" height="900"></rect>
                <g id="矩形">
                    <use fill="black" fill-opacity="1" filter="url(#filter-2)" xlink:href="#path-1"></use>
                    <use fill="#FAFAFA" fill-rule="evenodd" xlink:href="#path-1"></use>
                </g>
                <g id="矩形">
                    <use fill="black" fill-opacity="1" filter="url(#filter-4)" xlink:href="#path-3"></use>
                    <use fill="#FFFFFF" fill-rule="evenodd" xlink:href="#path-3"></use>
                </g>
                <g id="编组-5" transform="translate(691.000000, 172.000000)">
                    <g id="编组-4" transform="translate(0.000000, 33.000000)">
                        <g id="矩形">
                            <use fill="black" fill-opacity="1" filter="url(#filter-6)" xlink:href="#path-5"></use>
                            <use fill="#FFFFFF" fill-rule="evenodd" xlink:href="#path-5"></use>
                        </g>
                        <path d="M0,0 L56,0 C58.209139,-4.05812251e-16 60,1.790861 60,4 L60,56 C60,58.209139 58.209139,60 56,60 L0,60 L0,60 L0,0 Z" id="矩形备份-24" fill="#E2EDFF" transform="translate(30.000000, 30.000000) scale(-1, 1) translate(-30.000000, -30.000000) "></path>
                    </g>
                </g>
            </g>
            <g id="数据节点" transform="translate(705.000000, 219.000000)" fill="#3F87FF" fill-rule="nonzero">
                <path d="M18.8203125,13.5351562 L14.1796875,13.5351562 C13.8237227,13.5351562 13.5351562,13.8237227 13.5351562,14.1796875 L13.5351562,18.8203125 C13.5351562,19.1762773 13.8237227,19.4648438 14.1796875,19.4648438 L18.8203125,19.4648438 C19.1762773,19.4648438 19.4648438,19.1762773 19.4648438,18.8203125 L19.4648438,14.1796875 C19.4648438,13.8237227 19.1762773,13.5351562 18.8203125,13.5351562 Z M5.671875,0 C6.88024219,0 7.86328125,0.983039062 7.86328125,2.19140625 C7.86328125,3.17625 7.21024219,4.01130469 6.31434375,4.28664844 L6.31434375,11.859375 L10.1835937,11.859375 L10.1835937,10.828125 C10.1835937,10.4721602 10.4721602,10.1835937 10.828125,10.1835937 L15.8554688,10.1835937 L15.8554688,6.21766406 C14.9608594,5.94180469 14.3085938,5.10726563 14.3085938,4.1229375 C14.3085938,2.91457031 15.2916328,1.93153125 16.5,1.93153125 C17.7083672,1.93153125 18.6914062,2.91457031 18.6914062,4.1229375 C18.6914062,5.10726563 18.0391406,5.94154688 17.1445312,6.21766406 L17.1445312,10.1835937 L19.8515625,10.1835937 L19.8515625,5.6698125 C19.8515625,5.31384772 20.140129,5.02528125 20.4960938,5.02528125 L24.7512891,5.02528125 C25.1072538,5.02528125 25.3958203,5.31384772 25.3958203,5.6698125 C25.3958203,6.02577728 25.1072538,6.31434375 24.7512891,6.31434375 L21.140625,6.31434375 L21.140625,10.1835937 L22.171875,10.1835937 C22.5278398,10.1835937 22.8164062,10.4721602 22.8164062,10.828125 L22.8164062,15.8554688 L26.7823359,15.8554688 C27.0581953,14.9608594 27.8929922,14.3085938 28.8770625,14.3085938 C30.0851719,14.3085938 31.0684687,15.2916328 31.0684687,16.5 C31.0684687,17.7083672 30.0854297,18.6914062 28.8770625,18.6914062 C27.8929922,18.6914062 27.0584531,18.0391406 26.7823359,17.1445312 L22.8164062,17.1445312 L22.8164062,19.8515625 L27.3301875,19.8515625 C27.6861523,19.8515625 27.9747188,20.140129 27.9747188,20.4960938 L27.9747188,28.7146406 C28.8682969,28.9912734 29.5195312,29.8252969 29.5195312,30.8085938 C29.5195312,32.0169609 28.5364922,33 27.328125,33 C26.1197578,33 25.1367188,32.0169609 25.1367188,30.8085938 C25.1367188,29.82375 25.7897578,28.9886953 26.6856562,28.7136094 L26.6856562,21.140625 L22.8164062,21.140625 L22.8164062,22.171875 C22.8164062,22.5278398 22.5278398,22.8164063 22.171875,22.8164063 L17.1445312,22.8164063 L17.1445312,26.7823359 C18.0391406,27.0581953 18.6914062,27.8927344 18.6914062,28.8768047 C18.6914062,30.0854297 17.7083672,31.0682109 16.5,31.0682109 C15.2916328,31.0682109 14.3085938,30.0851719 14.3085938,28.8768047 C14.3085938,27.8927344 14.9608594,27.0584531 15.8554688,26.7823359 L15.8554688,22.8164062 L13.1484375,22.8164062 L13.1484375,27.3299297 C13.1484375,27.6858945 12.859871,27.9744609 12.5039062,27.9744609 L8.24845312,27.9744609 C7.89248834,27.9744609 7.60392187,27.6858945 7.60392187,27.3299297 C7.60392187,26.9739649 7.89248834,26.6853984 8.24845312,26.6853984 L11.859375,26.6853984 L11.859375,22.8164062 L10.828125,22.8164062 C10.4721602,22.8164062 10.1835937,22.5278398 10.1835937,22.171875 L10.1835937,17.1445312 L6.21740625,17.1445312 C5.94154687,18.0391406 5.10726562,18.6914062 4.1229375,18.6914062 C2.91457031,18.6914062 1.93153125,17.7083672 1.93153125,16.5 C1.93153125,15.2916328 2.91457031,14.3085938 4.1229375,14.3085938 C5.10700781,14.3085938 5.94154687,14.9608594 6.21766406,15.8554688 L10.1835937,15.8554688 L10.1835937,13.1484375 L5.6698125,13.1484375 C5.31384772,13.1484375 5.02528125,12.859871 5.02528125,12.5039062 L5.02528125,4.28535937 C4.13170312,4.00898437 3.48046875,3.17496094 3.48046875,2.19140625 C3.48046875,0.983039062 4.46350781,0 5.671875,0 Z M27.328125,29.90625 C26.8305469,29.90625 26.4257812,30.3110156 26.4257812,30.8085938 C26.4257812,31.3061719 26.8305469,31.7109375 27.328125,31.7109375 C27.8257031,31.7109375 28.2304688,31.3061719 28.2304688,30.8085938 C28.2304688,30.3110156 27.8257031,29.90625 27.328125,29.90625 Z M16.5,27.9744609 C16.0024219,27.9744609 15.5976562,28.3792266 15.5976562,28.8768047 C15.5976562,29.3743828 16.0024219,29.7791484 16.5,29.7791484 C16.9975781,29.7791484 17.4023438,29.3743828 17.4023438,28.8768047 C17.4023438,28.3792266 16.9975781,27.9744609 16.5,27.9744609 L16.5,27.9744609 Z M2.19140625,25.1367188 C3.39977344,25.1367188 4.3828125,26.1197578 4.3828125,27.328125 C4.3828125,28.5364922 3.39977344,29.5195312 2.19140625,29.5195312 C0.983039063,29.5195312 0,28.5364922 0,27.328125 C0,26.1197578 0.983039063,25.1367188 2.19140625,25.1367188 Z M2.19140625,26.4257812 C1.69382813,26.4257812 1.2890625,26.8305469 1.2890625,27.328125 C1.2890625,27.8257031 1.69382813,28.2304688 2.19140625,28.2304688 C2.68898437,28.2304688 3.09375,27.8257031 3.09375,27.328125 C3.09375,26.8305469 2.68898437,26.4257812 2.19140625,26.4257812 Z M5.96191406,26.6853984 C6.13129688,26.6853984 6.29758594,26.7544922 6.41746875,26.874375 C6.53735156,26.9942578 6.60644531,27.1605469 6.60644531,27.3299297 C6.60644531,27.4995703 6.53760937,27.6658594 6.41746875,27.7857422 C6.29634851,27.9061163 6.13267632,27.9739194 5.96191406,27.9744609 C5.79116296,27.9738638 5.62751104,27.9060691 5.50635938,27.7857422 C5.3858281,27.6646004 5.31792514,27.5008181 5.31738281,27.3299297 C5.31738281,27.1605469 5.38621875,26.9942578 5.50635938,26.874375 C5.62743777,26.7539064 5.79111508,26.6860085 5.96191406,26.6853984 L5.96191406,26.6853984 Z M21.5273438,11.4726562 L11.4726562,11.4726562 L11.4726562,21.5273438 L21.5273438,21.5273438 L21.5273438,11.4726562 Z M18.1757812,14.8242188 L18.1757812,18.1757812 L14.8242187,18.1757812 L14.8242187,14.8242188 L18.1757812,14.8242188 Z M28.8770625,15.5976562 C28.3794844,15.5976562 27.9747188,16.0024219 27.9747188,16.5 C27.9747188,16.9975781 28.3794844,17.4023438 28.8770625,17.4023438 C29.3746406,17.4023438 29.7794063,16.9975781 29.7794063,16.5 C29.7794063,16.0024219 29.3746406,15.5976562 28.8770625,15.5976562 L28.8770625,15.5976562 Z M4.1229375,15.5976562 C3.62535937,15.5976562 3.22059375,16.0024219 3.22059375,16.5 C3.22059375,16.9975781 3.62535937,17.4023438 4.1229375,17.4023438 C4.62051562,17.4023438 5.02528125,16.9975781 5.02528125,16.5 C5.02528125,16.0024219 4.62051562,15.5976562 4.1229375,15.5976562 L4.1229375,15.5976562 Z M30.8085938,3.48046875 C32.0169609,3.48046875 33,4.46350781 33,5.671875 C33,6.88024219 32.0169609,7.86328125 30.8085938,7.86328125 C29.6002266,7.86328125 28.6171875,6.88024219 28.6171875,5.671875 C28.6171875,4.46350781 29.6002266,3.48046875 30.8085938,3.48046875 Z M30.8085938,4.76953125 C30.3110156,4.76953125 29.90625,5.17429687 29.90625,5.671875 C29.90625,6.16945312 30.3110156,6.57421875 30.8085938,6.57421875 C31.3061719,6.57421875 31.7109375,6.16945312 31.7109375,5.671875 C31.7109375,5.17429687 31.3061719,4.76953125 30.8085938,4.76953125 Z M27.039375,5.02528125 C27.2101628,5.02594698 27.3738198,5.0938364 27.4949297,5.21425781 C27.6148125,5.33414062 27.6839063,5.50042969 27.6839063,5.6698125 C27.6839063,5.83945312 27.6150703,6.00574219 27.4949297,6.125625 C27.3738356,6.24607001 27.2101684,6.31396363 27.039375,6.31460156 C26.8692187,6.31460156 26.7037031,6.24550781 26.5830469,6.125625 C26.4628144,6.00445256 26.3951925,5.84077027 26.3948437,5.67007031 C26.3948437,5.50042969 26.4631641,5.33414062 26.5830469,5.21425781 C26.7043889,5.09374296 26.8683558,5.02593295 27.039375,5.02553906 L27.039375,5.02528125 Z M16.5,3.22059375 C16.0024219,3.22059375 15.5976562,3.62535937 15.5976562,4.1229375 C15.5976562,4.62051562 16.0024219,5.02528125 16.5,5.02528125 C16.9975781,5.02528125 17.4023438,4.62051562 17.4023438,4.1229375 C17.4023438,3.62535937 16.9975781,3.22059375 16.5,3.22059375 L16.5,3.22059375 Z M5.671875,1.2890625 C5.17429687,1.2890625 4.76953125,1.69382813 4.76953125,2.19140625 C4.76953125,2.68898438 5.17429688,3.09375 5.671875,3.09375 C6.16945312,3.09375 6.57421875,2.68898437 6.57421875,2.19140625 C6.57421875,1.69382812 6.16945313,1.2890625 5.671875,1.2890625 Z" id="形状"></path>
                <path d="M18.8203125,13.5351562 L14.1796875,13.5351562 C13.8237227,13.5351562 13.5351562,13.8237227 13.5351562,14.1796875 L13.5351562,18.8203125 C13.5351562,19.1762773 13.8237227,19.4648438 14.1796875,19.4648438 L18.8203125,19.4648438 C19.1762773,19.4648438 19.4648437,19.1762773 19.4648437,18.8203125 L19.4648437,14.1796875 C19.4648437,13.8237227 19.1762773,13.5351562 18.8203125,13.5351562 Z M22.171875,10.1835938 C22.5278398,10.1835938 22.8164062,10.4721602 22.8164062,10.828125 L22.8164062,22.171875 C22.8164062,22.5278398 22.5278398,22.8164062 22.171875,22.8164062 L10.828125,22.8164062 C10.4721602,22.8164062 10.1835938,22.5278398 10.1835938,22.171875 L10.1835938,10.828125 C10.1835938,10.4721602 10.4721602,10.1835938 10.828125,10.1835938 L22.171875,10.1835938 Z M21.5273438,11.4726562 L11.4726563,11.4726562 L11.4726563,21.5273438 L21.5273438,21.5273438 L21.5273438,11.4726562 L21.5273438,11.4726562 Z M18.1757812,14.8242188 L18.1757812,18.1757812 L14.8242188,18.1757812 L14.8242188,14.8242188 L18.1757812,14.8242188 L18.1757812,14.8242188 Z" id="形状"></path>
            </g>
        </g>
    </g>
</svg>