<?xml version="1.0" encoding="UTF-8"?>
<svg width="33px" height="33px" viewBox="0 0 33 33" version="1.1" xmlns="http://www.w3.org/2000/svg" xmlns:xlink="http://www.w3.org/1999/xlink">
    <title>节点</title>
    <defs>
        <rect id="path-1" x="220" y="112" width="1200" height="1556" rx="2"></rect>
        <filter x="-1.1%" y="-0.7%" width="102.2%" height="101.7%" filterUnits="objectBoundingBox" id="filter-2">
            <feOffset dx="0" dy="2" in="SourceAlpha" result="shadowOffsetOuter1"></feOffset>
            <feGaussianBlur stdDeviation="4" in="shadowOffsetOuter1" result="shadowBlurOuter1"></feGaussianBlur>
            <feColorMatrix values="0 0 0 0 0.0235294118   0 0 0 0 0.0549019608   0 0 0 0 0.101960784  0 0 0 0.08 0" type="matrix" in="shadowBlurOuter1"></feColorMatrix>
        </filter>
        <rect id="path-3" x="240" y="164" width="1160" height="1300" rx="1"></rect>
        <filter x="-0.9%" y="-0.6%" width="101.7%" height="101.5%" filterUnits="objectBoundingBox" id="filter-4">
            <feOffset dx="0" dy="2" in="SourceAlpha" result="shadowOffsetOuter1"></feOffset>
            <feGaussianBlur stdDeviation="3" in="shadowOffsetOuter1" result="shadowBlurOuter1"></feGaussianBlur>
            <feColorMatrix values="0 0 0 0 0   0 0 0 0 0   0 0 0 0 0  0 0 0 0.1 0" type="matrix" in="shadowBlurOuter1"></feColorMatrix>
        </filter>
        <rect id="path-5" x="0" y="72" width="260" height="60" rx="4"></rect>
        <filter x="-5.8%" y="-25.0%" width="111.5%" height="150.0%" filterUnits="objectBoundingBox" id="filter-6">
            <feOffset dx="0" dy="0" in="SourceAlpha" result="shadowOffsetOuter1"></feOffset>
            <feGaussianBlur stdDeviation="5" in="shadowOffsetOuter1" result="shadowBlurOuter1"></feGaussianBlur>
            <feColorMatrix values="0 0 0 0 0   0 0 0 0 0   0 0 0 0 0  0 0 0 0.1 0" type="matrix" in="shadowBlurOuter1"></feColorMatrix>
        </filter>
    </defs>
    <g id="v4.4.0" stroke="none" stroke-width="1" fill="none" fill-rule="evenodd">
        <g id="编组" transform="translate(-704.000000, -291.000000)">
            <rect id="矩形" fill="#F2F7FA" x="0" y="0" width="1440" height="900"></rect>
            <g id="矩形">
                <use fill="black" fill-opacity="1" filter="url(#filter-2)" xlink:href="#path-1"></use>
                <use fill="#FAFAFA" fill-rule="evenodd" xlink:href="#path-1"></use>
            </g>
            <g id="矩形">
                <use fill="black" fill-opacity="1" filter="url(#filter-4)" xlink:href="#path-3"></use>
                <use fill="#FFFFFF" fill-rule="evenodd" xlink:href="#path-3"></use>
            </g>
            <g id="编组-5" transform="translate(691.000000, 172.000000)">
                <g id="编组-4" transform="translate(0.000000, 33.000000)">
                    <g id="矩形备份">
                        <use fill="black" fill-opacity="1" filter="url(#filter-6)" xlink:href="#path-5"></use>
                        <use fill="#FFFFFF" fill-rule="evenodd" xlink:href="#path-5"></use>
                    </g>
                    <path d="M0,72 L56,72 C58.209139,72 60,73.790861 60,76 L60,128 C60,130.209139 58.209139,132 56,132 L0,132 L0,132 L0,72 Z" id="矩形备份-25" fill="#E2EDFF" transform="translate(30.000000, 102.000000) scale(-1, 1) translate(-30.000000, -102.000000) "></path>
                    <g id="节点" transform="translate(13.000000, 86.000000)" fill="#3F87FF" fill-rule="nonzero">
                        <path d="M9.62500001,25.5 L19.25,25.5 L19.25,21 C19.25,20.2043505 19.5397313,19.4412888 20.0554563,18.8786797 C20.5711814,18.3160705 21.2706547,18 22,18 L26.125,18 L26.125,7.5 C25.3956547,7.5 24.6961814,7.18392949 24.1804563,6.62132035 C23.6647313,6.05871122 23.375,5.29564948 23.375,4.5 L13.75,4.5 L13.75,9 C13.75,9.79564948 13.4602687,10.5587112 12.9445437,11.1213204 C12.4288186,11.6839295 11.7293453,12 11,12 L2.74999999,12 C1.23121693,12 0,10.6568543 0,9 L0,3 C0,1.34314575 1.23121693,-6.39488463e-16 2.74999999,-6.39488463e-16 L11,-6.39488463e-16 C11.7293453,-6.39488463e-16 12.4288186,0.316070507 12.9445437,0.878679641 C13.4602687,1.44128878 13.75,2.20435052 13.75,3 L23.7435,3 C24.3215016,1.90768515 25.4640527,1.32640006 26.6026351,1.5453844 C27.7412175,1.76436874 28.632662,2.73685359 28.8333976,3.9789435 C29.0341333,5.22103342 28.5012886,6.46745277 27.5,7.09799998 L27.5,18 L30.25,18 C30.9793454,18 31.6788186,18.3160705 32.1945437,18.8786797 C32.7102687,19.4412888 33,20.2043505 33,21 L33,27 C33,28.6568543 31.7687831,30 30.25,30 L22,30 C21.2706547,30 20.5711814,29.6839295 20.0554563,29.1213204 C19.5397313,28.5587112 19.25,27.7956495 19.25,27 L9.2565,27 C8.67849838,28.0923148 7.53594731,28.6735999 6.3973649,28.4546156 C5.25878249,28.2356312 4.36733806,27.2631464 4.16660241,26.0210565 C3.96586677,24.7789666 4.49871142,23.5325472 5.5,22.902 L5.5,15 L3.43750001,15 C3.05780425,15 2.75000002,14.6642136 2.75000002,14.25 C2.75000002,13.8357864 3.05780425,13.5 3.43750001,13.5 L10.3125,13.5 C10.6921958,13.5 11,13.8357864 11,14.25 C11,14.6642136 10.6921958,15 10.3125,15 L6.87499999,15 L6.87499999,22.5 C7.60434534,22.5 8.30381861,22.8160705 8.81954365,23.3786797 C9.3352687,23.9412888 9.62500001,24.7043505 9.62500001,25.5 L9.62500001,25.5 Z M2.74999999,1.49999998 C1.99060846,1.49999998 1.37500001,2.17157287 1.37500001,2.99999998 L1.37500001,8.99999998 C1.37500001,9.82842711 1.99060848,10.5 2.74999999,10.5 L11,10.5 C11.7593915,10.5 12.375,9.82842712 12.375,8.99999998 L12.375,2.99999998 C12.375,2.17157286 11.7593915,1.49999998 11,1.49999998 L2.74999999,1.49999998 Z M22,19.5 C21.2406085,19.5 20.625,20.1715729 20.625,21 L20.625,27 C20.625,27.8284271 21.2406085,28.5 22,28.5 L30.25,28.5 C31.0093915,28.5 31.625,27.8284271 31.625,27 L31.625,21 C31.625,20.1715729 31.0093915,19.5 30.25,19.5 L22,19.5 Z M22.6875,31.5 L29.5625,31.5 C29.9421957,31.5 30.25,31.8357865 30.25,32.25 C30.25,32.6642136 29.9421957,33 29.5625,33 L22.6875,33 C22.3078042,33 22,32.6642136 22,32.25 C22,31.8357865 22.3078042,31.5 22.6875,31.5 L22.6875,31.5 Z M26.125,5.99999997 C26.6162903,6.00008203 27.0702935,5.71420159 27.3159604,5.25006628 C27.5616272,4.78593097 27.5616272,4.214069 27.3159604,3.74993369 C27.0702935,3.28579838 26.6162903,2.99991794 26.125,2.99999997 C25.3656907,3.0001268 24.7502105,3.67166253 24.7502105,4.49999997 C24.7502105,5.32833744 25.3656907,5.99987317 26.125,5.99999997 L26.125,5.99999997 Z M6.87499999,27 C7.63439153,27 8.25,26.3284271 8.25,25.5 C8.25,24.6715729 7.63439153,24 6.87499999,24 C6.11560845,24 5.49999998,24.6715729 5.49999998,25.5 C5.49999998,26.3284271 6.11560845,27 6.87499999,27 Z" id="形状"></path>
                    </g>
                </g>
            </g>
        </g>
    </g>
</svg>