<?xml version="1.0" encoding="UTF-8"?>
<svg width="34px" height="34px" viewBox="0 0 34 34" version="1.1" xmlns="http://www.w3.org/2000/svg" xmlns:xlink="http://www.w3.org/1999/xlink">
    <title>运行管理</title>
    <defs>
        <rect id="path-1" x="220" y="112" width="1200" height="1556" rx="2"></rect>
        <filter x="-1.1%" y="-0.7%" width="102.2%" height="101.7%" filterUnits="objectBoundingBox" id="filter-2">
            <feOffset dx="0" dy="2" in="SourceAlpha" result="shadowOffsetOuter1"></feOffset>
            <feGaussianBlur stdDeviation="4" in="shadowOffsetOuter1" result="shadowBlurOuter1"></feGaussianBlur>
            <feColorMatrix values="0 0 0 0 0.0235294118   0 0 0 0 0.0549019608   0 0 0 0 0.101960784  0 0 0 0.08 0" type="matrix" in="shadowBlurOuter1"></feColorMatrix>
        </filter>
        <rect id="path-3" x="240" y="164" width="1160" height="1300" rx="1"></rect>
        <filter x="-0.9%" y="-0.6%" width="101.7%" height="101.5%" filterUnits="objectBoundingBox" id="filter-4">
            <feOffset dx="0" dy="2" in="SourceAlpha" result="shadowOffsetOuter1"></feOffset>
            <feGaussianBlur stdDeviation="3" in="shadowOffsetOuter1" result="shadowBlurOuter1"></feGaussianBlur>
            <feColorMatrix values="0 0 0 0 0   0 0 0 0 0   0 0 0 0 0  0 0 0 0.1 0" type="matrix" in="shadowBlurOuter1"></feColorMatrix>
        </filter>
        <rect id="path-5" x="0" y="33" width="260" height="60" rx="4"></rect>
        <filter x="-5.8%" y="-25.0%" width="111.5%" height="150.0%" filterUnits="objectBoundingBox" id="filter-6">
            <feOffset dx="0" dy="0" in="SourceAlpha" result="shadowOffsetOuter1"></feOffset>
            <feGaussianBlur stdDeviation="5" in="shadowOffsetOuter1" result="shadowBlurOuter1"></feGaussianBlur>
            <feColorMatrix values="0 0 0 0 0   0 0 0 0 0   0 0 0 0 0  0 0 0 0.1 0" type="matrix" in="shadowBlurOuter1"></feColorMatrix>
        </filter>
    </defs>
    <g id="v4.4.0" stroke="none" stroke-width="1" fill="none" fill-rule="evenodd">
        <g id="编组" transform="translate(-277.000000, -218.000000)">
            <rect id="矩形" fill="#F2F7FA" x="0" y="0" width="1440" height="900"></rect>
            <g id="矩形">
                <use fill="black" fill-opacity="1" filter="url(#filter-2)" xlink:href="#path-1"></use>
                <use fill="#FAFAFA" fill-rule="evenodd" xlink:href="#path-1"></use>
            </g>
            <g id="矩形">
                <use fill="black" fill-opacity="1" filter="url(#filter-4)" xlink:href="#path-3"></use>
                <use fill="#FFFFFF" fill-rule="evenodd" xlink:href="#path-3"></use>
            </g>
            <g id="编组-2" transform="translate(263.000000, 172.000000)">
                <g id="矩形备份-3">
                    <use fill="black" fill-opacity="1" filter="url(#filter-6)" xlink:href="#path-5"></use>
                    <use fill="#FFFFFF" fill-rule="evenodd" xlink:href="#path-5"></use>
                </g>
                <path d="M0,33 L56,33 C58.209139,33 60,34.790861 60,37 L60,89 C60,91.209139 58.209139,93 56,93 L0,93 L0,93 L0,33 Z" id="矩形备份-20" fill="#E2EDFF" transform="translate(30.000000, 63.000000) scale(-1, 1) translate(-30.000000, -63.000000) "></path>
                <g id="运行管理" transform="translate(14.170425, 46.000000)" fill="#3F87FF" fill-rule="nonzero">
                    <path d="M16.5003589,6.04290417 L17.6939092,5.32337274 C20.4919807,3.63660484 23.1080508,2.7032224 25.2341686,2.48469269 C27.3675605,2.26540221 28.7314809,2.77595153 29.5182331,3.5864324 C30.2658083,4.35651665 30.7505174,5.66351072 30.6142656,7.67729341 C30.5462136,8.62851579 30.3362973,9.72200119 29.9468537,10.9617817 C29.5763893,12.1411575 29.0598882,13.3842853 28.4035167,14.659023 C27.7348124,13.6731097 26.9982038,12.6902775 26.1971618,11.7216337 C26.8639829,11.0576381 27.2786091,10.126576 27.2786091,9.09573954 C27.2786091,7.07895183 25.6915534,5.44406809 23.7338487,5.44406809 C21.776144,5.44406809 20.1890883,7.07895183 20.1890883,9.09573954 C20.1890883,11.1124892 21.776144,12.747411 23.7338487,12.747411 C23.798836,12.747411 23.8634171,12.7455852 23.9275551,12.7420476 C25.1310751,14.1420452 26.1821335,15.5683272 27.0729023,16.9798884 C26.1918077,18.3747128 25.1541899,19.7837254 23.9676921,21.1674046 C23.865363,21.1583621 23.7627045,21.153844 23.6599995,21.153863 C21.7022948,21.153863 20.1152391,22.7887467 20.1152391,24.8055344 C20.1152391,26.8222841 21.7022948,28.4572059 23.6599995,28.4572059 C25.6177043,28.4572059 27.20476,26.8222841 27.20476,24.8055344 C27.20476,23.808514 26.8169041,22.9048394 26.1881522,22.2458649 C26.9921113,21.2750148 27.7313415,20.2899003 28.4023351,19.3015907 C29.0551988,20.5713073 29.569226,21.8095282 29.9382872,22.9844535 C31.1447243,26.8250609 30.6281493,29.2617528 29.5100358,30.4135888 C29.0733657,30.8633911 28.4464969,31.2187063 27.6225248,31.4107234 C26.964824,31.5607082 26.1741947,31.6057835 25.2341686,31.5091283 C23.1080508,31.2905986 20.4919807,30.3572542 17.6939092,28.6704483 L17.0504983,28.2825723 C14.9181033,26.9228192 12.7371895,25.1574642 10.6592952,23.0172805 L10.6749882,23.0011142 C10.6195901,22.9440424 10.5444525,22.9119795 10.4661058,22.9119795 C10.3877591,22.9119795 10.3126215,22.9440424 10.2572234,23.0011142 L9.00396595,24.2921703 C8.94856503,24.3492392 8.91744087,24.4266429 8.91744087,24.5073526 C8.91744087,24.5880623 8.94856503,24.6654661 9.00396595,24.722535 L8.988273,24.7387012 C10.6803792,26.4815375 12.4518363,28.0048931 14.2335584,29.2857929 C11.8418421,30.5861684 9.61835416,31.3187849 7.76654916,31.5091283 C5.63312032,31.7284568 4.26919989,31.2178695 3.48248462,30.4074266 C3.26315257,30.1814795 3.06645529,29.9093158 2.90140238,29.5866754 C2.66142948,29.1116919 2.48862241,28.5296687 2.4093084,27.8378291 C2.34919517,27.2974959 2.3460935,26.684966 2.41300085,25.9941535 C2.48142212,25.2879354 2.6219571,24.5292626 2.83589816,23.7287478 C2.90316516,23.4790838 2.97560312,23.2309291 3.05316243,22.9844535 C3.32765982,22.1105248 3.68239434,21.2015629 4.11478126,20.270691 C4.30194811,20.3015891 4.49120651,20.3170816 4.68076135,20.3170216 C6.63846607,20.3170216 8.22552178,18.6820998 8.22552178,16.6653501 C8.22552178,15.8869736 7.98913057,15.1655022 7.58624639,14.5729044 C8.4993176,13.3653423 9.52593192,12.1639424 10.6611415,10.9942663 L10.6715542,11.0049931 C10.7269642,10.9479292 10.7580946,10.8705236 10.7580946,10.7898108 C10.7580946,10.709098 10.7269642,10.6316924 10.6715542,10.5746284 L9.41829675,9.28357239 C9.30294015,9.16475149 9.11592548,9.16475149 9.00056888,9.28357239 L8.99015615,9.27284561 C7.7667707,10.5333189 6.65482366,11.8365472 5.66269691,13.1555994 C5.34345305,13.0611484 5.01291014,13.0133746 4.68076135,13.0136787 C4.3914572,13.0136787 4.11023954,13.0493586 3.84105929,13.1167243 C3.03049074,11.2418192 2.55852065,9.50202603 2.41300085,7.99966753 C2.2001306,5.8019319 2.69573242,4.39687523 3.48248462,3.5864324 C4.26919989,2.77595153 5.63315724,2.26540221 7.76654916,2.48469269 C9.89263,2.70326044 12.5087371,3.63660484 15.3068085,5.32337274 L16.5003589,6.04290417 Z M2.03777319,19.0988468 C1.12902216,21.0327112 0.510830708,22.9127894 0.210707657,24.6516697 C-0.318126291,27.7083089 0.135344573,30.3291439 1.72007404,32.0397238 L1.72354495,32.0361862 C1.7524569,32.0673776 1.78177502,32.0982646 1.81146239,32.1288474 C4.72521855,35.1304833 10.4998918,34.3860748 16.4911646,30.7771203 C22.0659651,34.1381416 27.4545548,35.0196018 30.5268651,32.7114031 C30.7621582,32.5354236 30.983639,32.3406367 31.1892553,32.1288474 C34.1045254,29.1256519 33.3796957,23.1722483 29.8717491,16.9969295 C31.8896778,13.4445759 32.9866335,9.96567419 32.9995202,7.07956044 C33.0186471,4.97775726 32.4662922,3.18706887 31.2799421,1.90651138 L31.2541688,1.93302404 C31.2327364,1.91014615 31.2110976,1.88747437 31.1892553,1.86501165 C28.2739853,-1.13818381 22.494918,-0.391493071 16.5003589,3.22225425 C10.5057997,-0.391493071 4.72673246,-1.13818381 1.81146239,1.86501165 C-0.703840536,4.45613881 -0.509358731,9.24344204 1.84447297,14.4746516 C1.39960554,15.0848991 1.13600091,15.8434198 1.13600091,16.6653501 C1.13600091,17.60014 1.47696255,18.4529194 2.03777319,19.0988468 Z M16.4966295,20.0507539 C14.8651904,20.0507539 13.5426624,18.6883001 13.5426624,17.0076943 C13.5426624,15.3270506 14.8651904,13.9646348 16.4966295,13.9646348 C18.1280685,13.9646348 19.4505965,15.3270506 19.4505965,17.0076943 C19.4505965,18.6883001 18.1280685,20.0507539 16.4966295,20.0507539 Z M16.4966295,22.4852015 C19.433205,22.4852015 21.8137701,20.0328379 21.8137701,17.0076943 C21.8137701,13.9825508 19.433205,11.5301872 16.4966295,11.5301872 C13.5600539,11.5301872 11.1794888,13.9825508 11.1794888,17.0076943 C11.1794888,20.0328379 13.5600539,22.4852015 16.4966295,22.4852015 Z" id="形状"></path>
                </g>
            </g>
        </g>
    </g>
</svg>