<?xml version="1.0" standalone="no"?><!DOCTYPE svg PUBLIC "-//W3C//DTD SVG 1.1//EN" "http://www.w3.org/Graphics/SVG/1.1/DTD/svg11.dtd"><svg t="1608201163258" class="icon" viewBox="0 0 1024 1024" version="1.1" xmlns="http://www.w3.org/2000/svg" p-id="3125" width="32" height="32" xmlns:xlink="http://www.w3.org/1999/xlink"><defs><style type="text/css"></style></defs><path d="M768 810.695111a42.666667 42.666667 0 1 1 0-85.390222 170.951111 170.951111 0 0 0 170.695111-170.695111 170.894222 170.894222 0 0 0-159.488-170.097778l-25.201778-1.507556-10.695111-22.698666C701.098667 270.990222 610.304 213.304889 512 213.304889c-98.304 0-189.098667 57.685333-231.310222 147.000889l-10.695111 22.698666-25.088 1.592889a170.808889 170.808889 0 0 0-159.516445 170.097778 170.951111 170.951111 0 0 0 170.723556 170.695111 42.666667 42.666667 0 1 1 0 85.418667c-141.226667 0-256-114.801778-256-256 0-126.122667 92.472889-232.504889 214.698666-252.416C274.773333 195.726222 388.892444 128 512 128s237.226667 67.697778 297.301333 174.193778c122.197333 19.911111 214.698667 126.407111 214.698667 252.501333 0 141.084444-114.801778 256-256 256z" fill="#3688FF" p-id="3126"></path><path d="M640 789.304889c-10.894222 0-21.788444-4.209778-30.208-12.515556L512 678.997333l-97.792 97.792a42.552889 42.552889 0 0 1-60.302222 0 42.552889 42.552889 0 0 1 0-60.302222l128-128a42.552889 42.552889 0 0 1 60.302222 0l128 128a42.552889 42.552889 0 0 1 0 60.302222c-8.419556 8.419556-19.313778 12.515556-30.208 12.515556z" fill="#5F6379" p-id="3127"></path><path d="M512 960a42.666667 42.666667 0 0 1-42.695111-42.695111V618.666667a42.666667 42.666667 0 1 1 85.390222 0v298.695111A42.666667 42.666667 0 0 1 512 960z" fill="#5F6379" p-id="3128"></path></svg>