<?xml version="1.0" encoding="utf-8"?>
<!-- Generator: Adobe Illustrator 21.0.0, SVG Export Plug-In . SVG Version: 6.00 Build 0)  -->
<svg version="1.1" id="图层_1" xmlns="http://www.w3.org/2000/svg" xmlns:xlink="http://www.w3.org/1999/xlink" x="0px" y="0px"
	 viewBox="0 0 200 200" xml:space="preserve">
<style type="text/css">
	.st0{fill:#fff;}
</style>
<g>
	<g>
		<path class="st0" d="M41.1,114.9h-7c-0.6,0-1,0.5-1,1c0,0.6,0.5,1,1,1h7c0.6,0,1-0.5,1-1C42.1,115.3,41.6,114.9,41.1,114.9z"/>
		<path class="st0" d="M78.6,114.9h-5c-0.6,0-1,0.5-1,1c0,0.6,0.5,1,1,1h5c0.6,0,1-0.5,1-1C79.6,115.3,79.2,114.9,78.6,114.9z"/>
	</g>
	<g>
		<path class="st0" d="M74.9,78.1h-11c-0.6,0-1,0.5-1,1c0,0.6,0.5,1,1,1h11c0.6,0,1-0.5,1-1C75.9,78.5,75.4,78.1,74.9,78.1z"/>
		<path class="st0" d="M60.7,80.1c0.6,0,1-0.5,1-1c0-0.6-0.5-1-1-1h-1.5c-0.6,0-1,0.5-1,1c0,0.6,0.5,1,1,1H60.7z"/>
		<path class="st0" d="M54.5,80.1h1.5c0.6,0,1-0.5,1-1c0-0.6-0.5-1-1-1h-1.5c-0.6,0-1,0.5-1,1C53.5,79.7,53.9,80.1,54.5,80.1z"/>
	</g>
	<path class="st0" d="M59.7,76.4h9.5c0.6,0,1-0.5,1-1c0-0.6-0.5-1-1-1h-9.5c-0.6,0-1,0.5-1,1C58.7,76,59.2,76.4,59.7,76.4z"/>
	<g>
		<path class="st0" d="M43,109.6c0.6,0,1-0.5,1-1c0-0.6-0.5-1-1-1h-1.5c-0.6,0-1,0.5-1,1c0,0.6,0.5,1,1,1H43z"/>
		<path class="st0" d="M48.9,107.5h-2.6c-0.6,0-1,0.5-1,1c0,0.6,0.5,1,1,1h2.6c0.6,0,1-0.5,1-1C50,108,49.5,107.5,48.9,107.5z"/>
		<path class="st0" d="M39.2,108.5c0-0.6-0.5-1-1-1H25.3c-0.6,0-1,0.5-1,1c0,0.6,0.5,1,1,1h12.9C38.8,109.6,39.2,109.1,39.2,108.5z"
			/>
		<path class="st0" d="M89,107.5H64.9c-0.6,0-1,0.5-1,1c0,0.6,0.5,1,1,1H89c0.6,0,1-0.5,1-1C90,108,89.5,107.5,89,107.5z"/>
	</g>
	<g>
		<path class="st0" d="M46.4,111.2H34.5c-0.6,0-1,0.5-1,1c0,0.6,0.5,1,1,1h11.8c0.6,0,1-0.5,1-1C47.4,111.7,46.9,111.2,46.4,111.2z"
			/>
		<path class="st0" d="M31.2,111.2h-2.9c-0.6,0-1,0.5-1,1c0,0.6,0.5,1,1,1h2.9c0.6,0,1-0.5,1-1C32.2,111.7,31.8,111.2,31.2,111.2z"
			/>
		<path class="st0" d="M78,112.2c0-0.6-0.5-1-1-1h-9.7c-0.6,0-1,0.5-1,1c0,0.6,0.5,1,1,1H77C77.6,113.2,78,112.8,78,112.2z"/>
		<path class="st0" d="M85.6,111.2h-5.5c-0.6,0-1,0.5-1,1c0,0.6,0.5,1,1,1h5.5c0.6,0,1-0.5,1-1C86.6,111.7,86.1,111.2,85.6,111.2z"
			/>
	</g>
	<g>
		<path class="st0" d="M24.2,97.5c0,0.6,0.5,1,1,1h15.3c0.6,0,1-0.5,1-1c0-0.6-0.5-1-1-1H25.3C24.7,96.5,24.2,96.9,24.2,97.5z"/>
		<path class="st0" d="M79.1,97.5c0,0.6,0.5,1,1,1h11c0.6,0,1-0.5,1-1c0-0.6-0.5-1-1-1h-11C79.6,96.5,79.1,96.9,79.1,97.5z"/>
		<path class="st0" d="M69.4,97.5c0,0.6,0.5,1,1,1h6.1c0.6,0,1-0.5,1-1c0-0.6-0.5-1-1-1h-6.1C69.8,96.5,69.4,96.9,69.4,97.5z"/>
	</g>
	<g>
		<path class="st0" d="M24.1,102.2h9.6c0.6,0,1-0.5,1-1c0-0.6-0.5-1-1-1h-9.6c-0.6,0-1,0.5-1,1C23.1,101.7,23.6,102.2,24.1,102.2z"
			/>
		<path class="st0" d="M91.4,100.2h-0.8c-0.6,0-1,0.5-1,1c0,0.6,0.5,1,1,1h0.8c0.6,0,1-0.5,1-1C92.4,100.6,92,100.2,91.4,100.2z"/>
		<path class="st0" d="M37.3,102.2H44c0.6,0,1-0.5,1-1c0-0.6-0.5-1-1-1h-6.7c-0.6,0-1,0.5-1,1C36.3,101.7,36.8,102.2,37.3,102.2z"/>
		<path class="st0" d="M88.3,101.2c0-0.6-0.5-1-1-1H72c-0.6,0-1,0.5-1,1c0,0.6,0.5,1,1,1h15.3C87.8,102.2,88.3,101.7,88.3,101.2z"/>
	</g>
	<g>
		<path class="st0" d="M32.8,94.8h1.5c0.6,0,1-0.5,1-1s-0.5-1-1-1h-1.5c-0.6,0-1,0.5-1,1S32.3,94.8,32.8,94.8z"/>
		<path class="st0" d="M38.9,94.8c0.6,0,1-0.5,1-1s-0.5-1-1-1h-1.2c-0.6,0-1,0.5-1,1s0.5,1,1,1H38.9z"/>
		<path class="st0" d="M74.3,92.8h-1.2c-0.6,0-1,0.5-1,1s0.5,1,1,1h1.2c0.6,0,1-0.5,1-1S74.9,92.8,74.3,92.8z"/>
		<path class="st0" d="M27.5,94.8h1.9c0.6,0,1-0.5,1-1s-0.5-1-1-1h-1.9c-0.6,0-1,0.5-1,1S26.9,94.8,27.5,94.8z"/>
		<path class="st0" d="M47.3,93.8c0,0.6,0.5,1,1,1h21.6c0.6,0,1-0.5,1-1s-0.5-1-1-1H48.3C47.8,92.8,47.3,93.3,47.3,93.8z"/>
		<path class="st0" d="M76.6,93.8c0,0.6,0.5,1,1,1h11.7c0.6,0,1-0.5,1-1s-0.5-1-1-1H77.6C77.1,92.8,76.6,93.3,76.6,93.8z"/>
	</g>
	<g>
		<path class="st0" d="M68.4,105.9h6.7c0.6,0,1-0.5,1-1c0-0.6-0.5-1-1-1h-6.7c-0.6,0-1,0.5-1,1C67.4,105.4,67.9,105.9,68.4,105.9z"
			/>
		<path class="st0" d="M90.6,103.8H78.3c-0.6,0-1,0.5-1,1c0,0.6,0.5,1,1,1h12.3c0.6,0,1-0.5,1-1C91.6,104.3,91.1,103.8,90.6,103.8z"
			/>
		<path class="st0" d="M49.9,103.8H24.1c-0.6,0-1,0.5-1,1c0,0.6,0.5,1,1,1h25.8c0.6,0,1-0.5,1-1C50.9,104.3,50.5,103.8,49.9,103.8z"
			/>
	</g>
	<g>
		<path class="st0" d="M70.1,89.1h-1.5c-0.6,0-1,0.5-1,1c0,0.6,0.5,1,1,1h1.5c0.6,0,1-0.5,1-1C71.1,89.6,70.6,89.1,70.1,89.1z"/>
		<path class="st0" d="M45.7,90.1c0-0.6-0.5-1-1-1H34.1c-0.6,0-1,0.5-1,1c0,0.6,0.5,1,1,1h10.5C45.2,91.2,45.7,90.7,45.7,90.1z"/>
		<path class="st0" d="M47.8,91.2h16.8c0.6,0,1-0.5,1-1c0-0.6-0.5-1-1-1H47.8c-0.6,0-1,0.5-1,1C46.8,90.7,47.2,91.2,47.8,91.2z"/>
		<path class="st0" d="M86.9,89.1H73.4c-0.6,0-1,0.5-1,1c0,0.6,0.5,1,1,1h13.5c0.6,0,1-0.5,1-1C87.9,89.6,87.5,89.1,86.9,89.1z"/>
	</g>
	<g>
		<path class="st0" d="M71.5,81.8h-1.1c-0.6,0-1,0.5-1,1c0,0.6,0.5,1,1,1h1.1c0.6,0,1-0.5,1-1C72.5,82.2,72,81.8,71.5,81.8z"/>
		<path class="st0" d="M53.4,83.8h1.5c0.6,0,1-0.5,1-1c0-0.6-0.5-1-1-1h-1.5c-0.6,0-1,0.5-1,1C52.3,83.3,52.8,83.8,53.4,83.8z"/>
		<path class="st0" d="M48.4,83.8h1.5c0.6,0,1-0.5,1-1c0-0.6-0.5-1-1-1h-1.5c-0.6,0-1,0.5-1,1C47.4,83.3,47.8,83.8,48.4,83.8z"/>
		<path class="st0" d="M43.4,83.8h1.5c0.6,0,1-0.5,1-1c0-0.6-0.5-1-1-1h-1.5c-0.6,0-1,0.5-1,1C42.4,83.3,42.9,83.8,43.4,83.8z"/>
		<g>
			<path class="st0" d="M78.6,83.8h-4.1c-0.5,0-1-0.4-1-1c0-0.5,0.4-1,1-1h4.1c0.5,0,1,0.4,1,1C79.6,83.4,79.2,83.8,78.6,83.8z"/>
		</g>
		<g>
			<g>
				<path class="st0" d="M67.4,83.8l-9.5,0c-0.5,0-1-0.4-1-1c0-0.5,0.4-1,1-1l9.5,0c0.5,0,1,0.4,1,1C68.4,83.4,67.9,83.8,67.4,83.8z
					"/>
			</g>
		</g>
	</g>
	<g>
		<path class="st0" d="M70.8,87.5c0.6,0,1-0.5,1-1c0-0.6-0.5-1-1-1h-1.5c-0.6,0-1,0.5-1,1c0,0.6,0.5,1,1,1H70.8z"/>
		<path class="st0" d="M51,87.5h1.5c0.6,0,1-0.5,1-1c0-0.6-0.5-1-1-1H51c-0.6,0-1,0.5-1,1C50,87,50.4,87.5,51,87.5z"/>
		<g>
			<path class="st0" d="M66.1,87.5H55.9c-0.5,0-1-0.4-1-1s0.4-1,1-1h10.3c0.5,0,1,0.4,1,1S66.7,87.5,66.1,87.5z"/>
		</g>
		<g>
			<g>
				<path class="st0" d="M47.6,87.5H37.3c-0.5,0-1-0.4-1-1s0.4-1,1-1h10.3c0.5,0,1,0.4,1,1S48.1,87.5,47.6,87.5z"/>
			</g>
		</g>
		<g>
			<g>
				<path class="st0" d="M83,87.5h-8.9c-0.5,0-1-0.4-1-1s0.4-1,1-1H83c0.5,0,1,0.4,1,1S83.5,87.5,83,87.5z"/>
			</g>
		</g>
	</g>
</g>
<path class="st0" d="M150.4,87L150.4,87L150.4,87L150.4,87h17.7c0.4,0,0.7-0.3,0.7-0.7c0-0.4-0.3-0.7-0.7-0.7h-17.6h0h-0.1l0,0
	c-0.3,0-0.6,0.3-0.6,0.7C149.8,86.7,150.1,87,150.4,87z"/>
<path class="st0" d="M169,93.3h-19.5c-0.4,0-0.7,0.3-0.7,0.7c0,0.4,0.3,0.7,0.7,0.7h4.5l-3.1,10c0,0.1,0,0.2,0,0.3
	c0,0.6,0.5,1.1,1.1,1.1h11.4c2.7,0,4.8-2.2,4.8-4.8l0-0.7h0l0,0v-0.1l0,0c0-0.7-0.7-1.3-1.5-1.3c-0.8,0-1.5,0.6-1.5,1.3l0,0l0,0.7
	c0,1.7-1.4,3.4-3.2,3.4h-8l3.1-9.9H169c0.4,0,0.7-0.3,0.7-0.7C169.6,93.7,169.3,93.3,169,93.3z"/>
<path class="st0" d="M127.9,94.9h13.4c1.4,0,2.5-1.1,2.5-2.5v-4.2c0-1.4-1.1-2.5-2.5-2.5l-4.7,0l0,0c-0.3,0-0.6,0.3-0.6,0.7
	c0,0.4,0.3,0.7,0.6,0.7l0,0l3.7,0c0.5,0,0.9,0.4,0.9,0.9v1.7l-4.6,0l0,0c-0.3,0-0.6,0.3-0.6,0.7c0,0.4,0.3,0.7,0.6,0.7l0,0l4.6,0
	v1.7c0,0.5-0.4,0.9-0.9,0.9h-11.3c-0.5,0-0.9-0.4-0.9-0.9V91l4.7,0l0,0c0.3,0,0.6-0.3,0.6-0.7c0-0.4-0.3-0.7-0.6-0.7l0,0l-4.7,0
	v-1.7c0-0.5,0.4-0.9,0.9-0.9h3.9l0,0c0.3,0,0.6-0.3,0.6-0.7c0-0.4-0.3-0.7-0.6-0.7l0,0h-4.9c-1.4,0-2.5,1.1-2.5,2.5v4.2
	C125.3,93.8,126.5,94.9,127.9,94.9z"/>
<path class="st0" d="M131.3,104.7h-2.4c-0.6,0-1-0.5-1-1.2l0-1.2h2.6c0.3,0,0.5-0.3,0.5-0.7c0-0.4-0.2-0.7-0.5-0.7h-2.6l0-2.3h2.6
	c0.3,0,0.5-0.3,0.5-0.7c0-0.4-0.2-0.7-0.5-0.7h-2.6l0-0.4c0-0.6-0.6-1.1-1.3-1.1c-0.7,0-1.2,0.5-1.3,1.1l0,0h0v6.7
	c0,1.6,0.6,2.6,2.3,2.6h3.7c0.3,0,0.6-0.3,0.6-0.7C131.8,105,131.6,104.7,131.3,104.7z"/>
<path class="st0" d="M139.3,104.7h-2.4c-0.6,0-1-0.5-1-1.2l0-1.2h2.6c0.3,0,0.5-0.3,0.5-0.7c0-0.4-0.2-0.7-0.5-0.7h-2.6l0-2.3h2.6
	c0.3,0,0.5-0.3,0.5-0.7c0-0.4-0.2-0.7-0.5-0.7h-2.6l0-0.4c0-0.6-0.6-1.1-1.3-1.1c-0.7,0-1.2,0.5-1.3,1.1l0,0h0v6.7
	c0,1.6,0.6,2.6,2.3,2.6h3.7c0.3,0,0.6-0.3,0.6-0.7C139.8,105,139.6,104.7,139.3,104.7z"/>
<path class="st0" d="M143.7,96.9c0-0.6-0.7-1.1-1.4-1.1c-0.7,0-1.2,0.5-1.3,1.1l0,0h0v6.7c0,1.6,0.7,2.6,2.3,2.6h1.6
	c0.3,0,0.6-0.3,0.6-0.7c0-0.4-0.2-0.7-0.5-0.7h-0.3c-0.6,0-1-0.5-1-1.2L143.7,96.9z"/>
<path class="st0" d="M121,97.8c0.3,0,0.6-0.3,0.6-0.7c0-0.4-0.3-0.7-0.6-0.7l0,0h-9v-0.7l0,0c0-0.7-0.6-1.2-1.4-1.2
	c-0.8,0-1.4,0.5-1.4,1.2v0.7h-7.8l0,0c-0.4,0-0.7,0.3-0.7,0.7c0,0.4,0.3,0.7,0.7,0.7l0,0h5.9l-5.5,4.1c-0.4,0.2-0.6,0.6-0.6,1.1
	c0,0.7,0.6,1.3,1.3,1.3c0.4,0,0.7-0.2,1-0.4l2-1.5v1.5c0,1.4,1.1,2.3,2.5,2.3h2.1v0c0,0,0,0,0,0c0.4,0,0.7-0.3,0.7-0.7
	c0-0.4-0.3-0.7-0.7-0.7c0,0,0,0,0,0l0,0h-0.9c-0.5,0-0.9-0.4-0.9-0.9v-3.7l1.9-1.5l3.4,5c1.1,1.5,2.8,2.5,4.7,2.5h2.7v0
	c0.3,0,0.6-0.3,0.6-0.7s-0.3-0.7-0.6-0.7l0,0h-1.4c-1,0-1.9-0.5-2.7-1.2l1.1-2l0,0c0.2-0.5,0-1.1-0.6-1.4c-0.5-0.3-1.2-0.1-1.5,0.3
	l0,0l-0.7,1l-2.5-3.6H121L121,97.8z"/>
<path class="st0" d="M121,93.6L121,93.6h-1.8c-2.2-0.1-3.2-1.3-3.9-2.8l0-0.1h2.9c1.5,0,2.6-1.2,2.6-2.6l0-0.8l0,0
	c0-0.5-0.5-0.9-1.1-0.9c-0.6,0-1.1,0.4-1.1,0.9l0,0l0,0.8c0,0.6-0.3,1.3-1,1.3h-2.8l-1.6-3.7l0,0c-0.2-0.8-1-1.2-1.7-1
	c-0.8,0.2-1.2,1-1,1.7l1.3,2.9h-3.5l0,0c-0.4,0-0.7,0.3-0.7,0.7c0,0.4,0.3,0.7,0.7,0.7l0,0l4.1,0l0.5,1.1c0.9,2.1,3,3.4,5.2,3.4h3.1
	v0c0.3,0,0.6-0.4,0.6-0.8C121.6,94,121.4,93.6,121,93.6z"/>
<path class="st0" d="M107,86.4c0-0.6-0.4-1-1-1c-0.2,0-0.4,0.1-0.5,0.1l-4.1,3.2c0,0-0.5,0.3-0.5,0.9c0,0.6,0.5,1.2,1.2,1.2
	c0.4,0,0.9-0.4,0.9-0.4l1.6-1.2l0,4.7h0c0,0.7,0.5,1.2,1.2,1.2c0.7,0,1.2-0.5,1.2-1.2h0v-6.5V86.4L107,86.4z"/>
<g>
	<circle class="st0" cx="147.4" cy="114.2" r="0.6"/>
	<path class="st0" d="M104,111h-1.4c-0.3,0-0.5,0.2-0.5,0.4c0,0,0,0.1,0,0.1v5.1c0,0,0,0.1,0,0.1c0.1,0.2,0.3,0.4,0.5,0.4h1.4
		c1.7,0,3.1-1.4,3.1-3.1C107.1,112.4,105.7,111,104,111z M104,116.1h-0.9v-4h0.9c1.1,0,2,0.9,2,2C106,115.2,105.1,116.1,104,116.1z"
		/>
	<path class="st0" d="M113,111h-2c0,0,0,0,0,0c0,0,0,0,0,0h-2c-0.3,0-0.5,0.2-0.5,0.5c0,0.3,0.2,0.5,0.5,0.5h1.5v4.5
		c0,0.3,0.2,0.5,0.5,0.5s0.5-0.2,0.5-0.5v-4.5h1.5c0.3,0,0.5-0.2,0.5-0.5C113.6,111.3,113.3,111,113,111z"/>
	<path class="st0" d="M118.2,113.5h-1.5c-0.4,0-0.7-0.3-0.7-0.7c0-0.4,0.3-0.7,0.7-0.7h1.5c0.2,0,0.5,0.1,0.6,0.3
		c0.2,0.2,0.5,0.3,0.8,0.1c0.2-0.2,0.3-0.5,0.1-0.8c-0.3-0.5-0.9-0.8-1.5-0.8h-1.5c-1,0-1.8,0.8-1.8,1.8c0,1,0.8,1.8,1.8,1.8h1.5
		c0.4,0,0.7,0.3,0.7,0.7c0,0.4-0.3,0.7-0.7,0.7h-1.5c-0.3,0-0.5-0.1-0.6-0.4c-0.2-0.3-0.5-0.3-0.7-0.2c-0.3,0.2-0.3,0.5-0.2,0.7
		c0.3,0.6,0.9,0.9,1.6,0.9h1.5c1,0,1.8-0.8,1.8-1.8C120,114.4,119.2,113.5,118.2,113.5z"/>
	<path class="st0" d="M125.4,111h-2c0,0,0,0,0,0c0,0,0,0,0,0h-2c-0.3,0-0.5,0.2-0.5,0.5c0,0.3,0.2,0.5,0.5,0.5h1.5v4.5
		c0,0.3,0.2,0.5,0.5,0.5c0.3,0,0.5-0.2,0.5-0.5v-4.5h1.5c0.3,0,0.5-0.2,0.5-0.5C125.9,111.3,125.7,111,125.4,111z"/>
	<path class="st0" d="M140.8,111c-0.3,0-0.5,0.2-0.5,0.5v5.1c0,0.3,0.2,0.5,0.5,0.5c0.3,0,0.5-0.2,0.5-0.5v-5.1
		C141.3,111.2,141.1,111,140.8,111z"/>
	<path class="st0" d="M135.8,112c0.6,0,1.1,0.3,1.4,0.8c0.2,0.3,0.5,0.4,0.7,0.2c0.3-0.2,0.4-0.5,0.2-0.7c-0.5-0.8-1.4-1.4-2.4-1.4
		c-1.5,0-2.7,1.2-2.7,2.7v0.9c0,1.5,1.2,2.7,2.7,2.7c0.9,0,1.7-0.4,2.3-1.2c0.2-0.2,0.1-0.6-0.1-0.8c-0.2-0.2-0.6-0.1-0.8,0.1
		c-0.3,0.4-0.8,0.7-1.3,0.7c-0.9,0-1.6-0.7-1.6-1.6v-0.9C134.2,112.7,134.9,112,135.8,112z"/>
	<path class="st0" d="M160.6,111.5C160.6,111.5,160.6,111.5,160.6,111.5c-0.1-0.1-0.2-0.1-0.3-0.2c0,0-0.1,0-0.1-0.1
		c-0.1,0-0.1-0.1-0.2-0.1c-0.1,0-0.1-0.1-0.2-0.1c0,0-0.1,0-0.1,0c-0.1,0-0.2,0-0.2-0.1c0,0,0,0,0,0c-0.2,0-0.4-0.1-0.6-0.1
		c-1.5,0-2.7,1.2-2.7,2.7v0.9c0,0.9,0.4,1.6,1.1,2.1c0,0,0,0,0.1,0c0.1,0,0.1,0.1,0.2,0.1c0,0,0.1,0,0.1,0.1c0.1,0,0.1,0.1,0.2,0.1
		c0.1,0,0.2,0.1,0.2,0.1c0,0,0.1,0,0.1,0c0.1,0,0.2,0,0.2,0.1c0,0,0,0,0,0c0.2,0,0.4,0.1,0.6,0.1c1.5,0,2.7-1.2,2.7-2.7v-0.9
		C161.7,112.7,161.2,112,160.6,111.5z M158.1,115.9C158.1,115.9,158.1,115.9,158.1,115.9c-0.1-0.1-0.1-0.1-0.2-0.1c0,0,0,0,0,0
		c-0.2-0.1-0.3-0.3-0.4-0.5c0,0,0,0,0,0c-0.1-0.2-0.2-0.5-0.2-0.8v-0.9c0-0.3,0.1-0.6,0.2-0.8c0,0,0,0,0.1-0.1
		c0.3-0.4,0.8-0.7,1.3-0.7c0.3,0,0.5,0.1,0.7,0.2c0,0,0,0,0.1,0c0,0,0,0,0.1,0c0,0,0.1,0.1,0.1,0.1c0,0,0,0,0,0
		c0.2,0.1,0.3,0.3,0.4,0.5c0,0,0,0,0,0c0.1,0.2,0.2,0.5,0.2,0.8v0.9c0,0.3-0.1,0.6-0.2,0.8c0,0,0,0-0.1,0.1
		c-0.3,0.4-0.8,0.7-1.3,0.7C158.7,116.1,158.4,116,158.1,115.9C158.2,115.9,158.2,115.9,158.1,115.9z"/>
	<path class="st0" d="M152.4,112c0.6,0,1.1,0.3,1.4,0.8c0.1,0.3,0.5,0.4,0.7,0.2c0.3-0.2,0.4-0.5,0.2-0.7c-0.5-0.8-1.4-1.4-2.4-1.4
		c-1.5,0-2.7,1.2-2.7,2.7v0.9c0,1.5,1.2,2.7,2.7,2.7c0.9,0,1.7-0.4,2.3-1.2c0.2-0.2,0.1-0.6-0.1-0.8c-0.2-0.2-0.6-0.1-0.8,0.1
		c-0.3,0.4-0.8,0.7-1.3,0.7c-0.9,0-1.6-0.7-1.6-1.6v-0.9C150.7,112.7,151.5,112,152.4,112z"/>
	<path class="st0" d="M142.7,113.7l1.9-1.7c0.2-0.2,0.2-0.5,0-0.8c-0.2-0.2-0.5-0.2-0.8,0l-2.1,1.9c0,0-0.2,0.1-0.2,0.2
		c-0.2,0.2-0.2,0.6,0,0.8l2.9,2.9c0.1,0.1,0.2,0.2,0.4,0.2c0.1,0,0.3-0.1,0.4-0.2c0.2-0.2,0.2-0.6,0-0.8L142.7,113.7z"/>
	<path class="st0" d="M131.7,116.4l-2.1-5.2c0,0,0-0.1-0.1-0.1c0,0,0-0.1-0.1-0.1c0,0-0.1-0.1-0.1-0.1c0,0-0.1,0-0.1,0l0,0
		c0,0-0.1,0-0.1,0c0,0-0.1,0-0.1,0c0,0-0.1,0-0.1,0c-0.1,0-0.1,0-0.2,0.1c0,0-0.1,0.1-0.1,0.1c0,0-0.1,0.1-0.1,0.1
		c0,0,0,0.1-0.1,0.1l-2.1,5.2c-0.1,0.3,0,0.6,0.3,0.7c0.1,0,0.1,0,0.2,0c0.2,0,0.4-0.1,0.5-0.3l1.6-4l1.6,4c0.1,0.2,0.3,0.3,0.5,0.3
		c0.1,0,0.1,0,0.2,0C131.7,117,131.9,116.7,131.7,116.4z"/>
	<path class="st0" d="M170,116.5l-1.6-5.1c0,0,0-0.1,0-0.1c0,0,0-0.1-0.1-0.1c0,0-0.1-0.1-0.1-0.1c0,0-0.1-0.1-0.1-0.1
		c-0.1,0-0.1-0.1-0.2-0.1c0,0-0.1,0-0.1,0c-0.1,0-0.1,0-0.2,0.1c0,0-0.1,0-0.1,0.1c0,0-0.1,0.1-0.1,0.1c0,0-0.1,0.1-0.1,0.1
		c0,0,0,0.1,0,0.1l-1,3.4l-1-3.4c0,0,0-0.1,0-0.1c0,0,0-0.1-0.1-0.1c0,0-0.1-0.1-0.1-0.1c0,0-0.1,0-0.1-0.1c0,0-0.1,0-0.1,0
		c0,0-0.1,0-0.1,0c0,0-0.1,0-0.1,0c-0.1,0-0.1,0-0.2,0.1c0,0-0.1,0-0.1,0.1c0,0-0.1,0.1-0.1,0.1c0,0-0.1,0.1-0.1,0.1
		c0,0,0,0.1,0,0.1l-1.6,5.1c-0.1,0.3,0.1,0.6,0.4,0.7c0.1,0,0.1,0,0.2,0c0.2,0,0.4-0.2,0.5-0.4l1-3.4l1,3.4c0,0.1,0,0.1,0.1,0.1
		c0,0,0,0,0,0c0,0,0.1,0.1,0.1,0.1c0,0,0,0,0,0c0,0,0.1,0,0.1,0.1c0,0,0,0,0,0c0,0,0,0,0,0c0,0,0.1,0,0.1,0c0,0,0,0,0,0l0,0l0,0
		c0,0,0,0,0,0c0,0,0.1,0,0.1,0c0,0,0,0,0,0c0,0,0,0,0,0c0,0,0.1,0,0.1-0.1c0,0,0,0,0,0c0,0,0.1-0.1,0.1-0.1c0,0,0,0,0,0
		c0,0,0.1-0.1,0.1-0.1l1-3.4l1,3.4c0.1,0.2,0.3,0.4,0.5,0.4c0.1,0,0.1,0,0.2,0C170,117.1,170.1,116.8,170,116.5z"/>
</g>
</svg>
