<?xml version="1.0" encoding="utf-8"?>
<!-- Generator: Adobe Illustrator 26.2.1, SVG Export Plug-In . SVG Version: 6.00 Build 0)  -->
<svg version="1.1" id="图层_1" xmlns="http://www.w3.org/2000/svg" xmlns:xlink="http://www.w3.org/1999/xlink" x="0px" y="0px"
	 viewBox="0 0 141.73 141.73" style="enable-background:new 0 0 141.73 141.73;" xml:space="preserve">
<style type="text/css">
	.st0{fill:#234893;}
	.st1{fill:#FFFFFF;}
	.st2{fill:none;stroke:#0A3682;stroke-width:1.5;stroke-miterlimit:10;}
</style>
<g>
	<polygon class="st0" points="110.72,96.88 110.72,50.86 70.87,27.85 31.01,50.86 31.01,96.88 70.87,119.89 	"/>
	<path class="st1" d="M73.85,61.07L61.64,82.21l1.81,3.35l4.75,8.15l18.83-32.64H73.85z M65.69,81.88l10.04-17.24h5.15L68.47,86.45
		L65.69,81.88z"/>
	<path class="st1" d="M66.1,60.94l-1.53,2.63h1.83l-3.48,6.05l-3.62-6.05h1.77l-1.52-2.63h-4.85l8.03,13.91l8.1-13.91H66.1z"/>
	<g>
		<path class="st1" d="M64.56,63.57L64.56,63.57L64.56,63.57z M64.56,63.57h-3.51l1.74,3.02L64.56,63.57L64.56,63.57z"/>
	</g>
	<polygon class="st1" points="39.64,91.9 39.64,86.43 44.39,89.17 45.15,89.61 70.87,104.46 97.35,89.16 97.35,58.58 70.87,43.28 
		44.38,58.58 44.38,76.58 39.64,73.85 39.64,55.84 70.87,37.82 102.09,55.84 102.09,91.9 70.87,109.92 	"/>
</g>
</svg>
